<svg id="Capa_1" enable-background="new 0 0 512 512" height="512" viewBox="0 0 512 512" width="512" xmlns="http://www.w3.org/2000/svg"><g><g><path d="m437.02 74.981c-48.353-48.353-112.64-74.981-181.02-74.981s-132.667 26.628-181.02 74.981c-48.352 48.352-74.98 112.639-74.98 181.019 0 56.513 17.945 109.846 51.954 154.606-7.226 18.785-17.711 35.939-31.216 51.061-2.069 2.316-2.944 5.463-2.368 8.515s2.537 5.664 5.308 7.067c29.105 14.743 63.683 10.805 88.574-9.408 42.491 28.917 92.015 44.159 143.748 44.159 52.582 0 103.104-15.824 146.105-45.761 4.532-3.156 5.648-9.388 2.493-13.921-3.155-4.532-9.387-5.648-13.921-2.493-39.63 27.591-86.201 42.175-134.677 42.175-50.198 0-98.134-15.563-138.626-45.006-3.977-2.892-9.466-2.463-12.946 1.011-15.876 15.852-38.654 21.646-59.686 16.008 12.032-15.707 21.409-33.101 27.95-51.877 1.127-3.236.519-6.825-1.612-9.508-33.417-42.086-51.08-92.789-51.08-146.628 0-63.038 24.548-122.303 69.123-166.877 44.574-44.575 103.839-69.123 166.877-69.123s122.303 24.548 166.877 69.123c44.575 44.574 69.123 103.839 69.123 166.877 0 47.623-14.115 93.513-40.819 132.709-3.11 4.564-1.931 10.785 2.634 13.895 4.563 3.11 10.786 1.931 13.895-2.634 28.975-42.529 44.29-92.313 44.29-143.97 0-68.38-26.628-132.667-74.98-181.019z"/><path d="m397.823 152.523c-19.886-19.885-46.325-30.837-74.447-30.837-24.907 0-48.493 8.589-67.376 24.369-18.883-15.78-42.469-24.369-67.376-24.369-28.122 0-54.562 10.952-74.447 30.837-19.885 19.886-30.837 46.325-30.837 74.447s10.952 54.562 30.837 74.447l119.205 119.205c6.042 6.042 14.074 9.369 22.618 9.369s16.577-3.327 22.618-9.369l119.205-119.205c41.05-41.05 41.05-107.844 0-148.894zm-14.142 134.752-119.205 119.204c-2.264 2.264-5.274 3.511-8.476 3.511s-6.212-1.247-8.476-3.511l-119.205-119.204c-16.108-16.108-24.979-37.524-24.979-60.305s8.871-44.197 24.979-60.305c33.252-33.253 87.357-33.253 120.609 0 3.905 3.905 10.237 3.905 14.143 0 33.252-33.253 87.357-33.253 120.609 0 33.253 33.252 33.253 87.358.001 120.61z"/><circle cx="430.83" cy="429.067" r="10"/></g></g></svg>