<svg id="Capa_1" enable-background="new 0 0 512 512" height="512" viewBox="0 0 512 512" width="512" xmlns="http://www.w3.org/2000/svg"><g><g><path d="m306.672 238.017 6.518-4.161c63.565-40.572 94.248-117.11 76.31-190.356h-267c-17.938 73.245 12.745 149.784 76.309 190.357l6.518 4.161c6.139 3.919 9.855 10.699 9.855 17.983 0 7.284-3.716 14.064-9.855 17.983l-6.518 4.161c-63.564 40.571-94.247 117.109-76.309 190.355h267c17.938-73.245-12.745-149.784-76.309-190.357l-6.518-4.161c-6.139-3.919-9.855-10.699-9.855-17.983-.001-7.283 3.715-14.063 9.854-17.982z" fill="#eaf6ff"/><path d="m313.191 278.143-6.518-4.161c-6.14-3.919-9.855-10.699-9.855-17.982 0-7.284 3.716-14.064 9.855-17.982l6.518-4.161c63.564-40.573 94.247-117.111 76.309-190.357h-30c17.938 73.246-12.745 149.784-76.309 190.357l-6.518 4.161c-6.14 3.919-9.855 10.699-9.855 17.982s3.716 14.064 9.855 17.982l6.518 4.161c63.565 40.573 94.247 117.111 76.309 190.357h30c17.938-73.246-12.745-149.784-76.309-190.357z" fill="#d8ecfe"/><path d="m402 43.5h-292c-5.523 0-10-4.477-10-10v-16c0-5.523 4.477-10 10-10h292c5.523 0 10 4.477 10 10v16c0 5.523-4.477 10-10 10z" fill="#7a6d79"/><path d="m402 7.5h-30c5.523 0 10 4.477 10 10v16c0 5.523-4.477 10-10 10h30c5.523 0 10-4.477 10-10v-16c0-5.523-4.477-10-10-10z" fill="#685e68"/><path d="m402 468.5h-292c-5.523 0-10 4.477-10 10v16c0 5.523 4.477 10 10 10h292c5.523 0 10-4.477 10-10v-16c0-5.523-4.477-10-10-10z" fill="#7a6d79"/><path d="m402 468.5h-30c5.523 0 10 4.477 10 10v16c0 5.523-4.477 10-10 10h30c5.523 0 10-4.477 10-10v-16c0-5.523-4.477-10-10-10z" fill="#685e68"/><path d="m359.539 468.5-78.578-101.345c-12.645-16.309-37.278-16.309-49.923 0l-78.577 101.345z" fill="#ffe5c2"/><path d="m280.962 367.155c-9.831-12.679-26.906-15.496-39.962-8.46 3.737 2.014 7.147 4.831 9.962 8.46l78.577 101.345h30z" fill="#fed2a4"/><path d="m351.48 85.696c4.044-.932 7.8 2.399 7.32 6.522-2.154 18.514-9.841 54.639-39.388 85.846-22.361 23.616-47.43 34.054-61.529 38.633-1.233.401-2.551.385-3.779-.032-13.815-4.693-44.449-17.417-69.364-48.775-22.82-28.723-29.438-58.726-31.494-75.601-.505-4.142 3.233-7.525 7.299-6.589 26.462 6.093 60.637 11.298 100.493 10.826 35.395-.418 66.024-5.205 90.442-10.83z" fill="#ffe5c2"/><g><path d="m351.48 85.696c-7.077 1.63-14.691 3.185-22.776 4.588.13.615.174 1.262.096 1.934-2.154 18.515-9.841 54.64-39.388 85.846-16.385 17.305-34.218 27.528-48.13 33.561 5.058 2.262 9.445 3.893 12.822 5.041 1.228.417 2.546.432 3.779.032 14.099-4.58 39.169-15.017 61.529-38.634 29.547-31.207 37.234-67.332 39.388-85.846.48-4.122-3.276-7.453-7.32-6.522z" fill="#fed2a4"/></g></g><path d="m150.173 81.51c-3.271 2.943-4.904 7.313-4.371 11.688 2.477 20.334 10.225 50.608 33.066 79.358 22.579 28.42 49.758 42.851 69.632 50.085v27.279c0 4.143 3.358 7.5 7.5 7.5s7.5-3.357 7.5-7.5v-27.202c17.083-5.978 40.573-17.544 61.358-39.497 30.656-32.377 39.092-70.37 41.392-90.135.506-4.346-1.138-8.682-4.396-11.6-3.27-2.927-7.778-4.086-12.057-3.099-29.115 6.707-59.007 10.287-88.846 10.641-33.154.379-66.364-3.187-98.721-10.635-4.285-.99-8.793.179-12.057 3.117zm110.954 22.516c30.201-.357 60.455-3.905 89.958-10.549-2.433 18.413-10.506 51.322-37.121 79.431-19.782 20.893-42.32 31.369-57.913 36.498-14.998-5.159-42.995-17.93-65.44-46.18-19.892-25.038-27.133-51.375-29.648-69.737 32.854 7.392 66.534 10.939 100.164 10.537zm-5.127 196.24c-4.142 0-7.5 3.358-7.5 7.5s3.358 7.5 7.5 7.5 7.5-3.358 7.5-7.5-3.358-7.5-7.5-7.5zm0-30c-4.142 0-7.5 3.358-7.5 7.5s3.358 7.5 7.5 7.5 7.5-3.358 7.5-7.5-3.358-7.5-7.5-7.5zm163.5-236.766v-16c0-9.649-7.851-17.5-17.5-17.5h-292c-9.649 0-17.5 7.851-17.5 17.5v16c0 9.649 7.851 17.5 17.5 17.5h3.202c-14.043 73.499 17.959 148.575 81.572 189.178l6.519 4.162c4.002 2.554 6.391 6.913 6.391 11.66s-2.389 9.106-6.391 11.66l-6.518 4.161c-63.614 40.604-95.616 115.68-81.573 189.179h-3.202c-9.649 0-17.5 7.851-17.5 17.5v16c0 9.649 7.851 17.5 17.5 17.5h292c9.649 0 17.5-7.851 17.5-17.5v-16c0-9.649-7.851-17.5-17.5-17.5h-3.202c14.043-73.499-17.959-148.575-81.572-189.178l-6.519-4.162c-4.001-2.554-6.391-6.913-6.391-11.66s2.389-9.106 6.391-11.66l6.518-4.161c63.613-40.604 95.615-115.68 81.572-189.179h3.203c9.649 0 17.5-7.851 17.5-17.5zm-17.5 442.5c1.378 0 2.5 1.121 2.5 2.5v16c0 1.379-1.122 2.5-2.5 2.5h-292c-1.378 0-2.5-1.121-2.5-2.5v-16c0-1.379 1.122-2.5 2.5-2.5zm-203.473-425h184.978c14.268 68.385-15.121 138.731-74.349 176.535l-6.519 4.16c-8.34 5.324-13.319 14.41-13.319 24.305s4.979 18.98 13.319 24.305l6.519 4.161c59.227 37.803 88.616 108.149 74.349 176.534h-20.29l-34.949-45.075c-2.538-3.272-7.249-3.87-10.523-1.331-3.273 2.538-3.87 7.249-1.332 10.522l27.822 35.884h-176.466l69.199-89.249c4.596-5.928 11.534-9.328 19.034-9.328s14.438 3.4 19.034 9.328l19.886 25.647c2.539 3.273 7.25 3.871 10.523 1.331 3.273-2.538 3.87-7.249 1.332-10.522l-19.886-25.647c-7.458-9.619-18.717-15.137-30.889-15.137s-23.431 5.518-30.889 15.137l-76.325 98.44h-20.29c-14.268-68.385 15.121-138.731 74.349-176.535l6.519-4.16c8.34-5.324 13.32-14.41 13.32-24.305s-4.979-18.98-13.32-24.305l-6.519-4.161c-59.228-37.803-88.617-108.149-74.35-176.534h35.031c4.142 0 7.5-3.357 7.5-7.5s-3.358-7.5-7.5-7.5h-53.526c-1.378 0-2.5-1.121-2.5-2.5v-16c0-1.379 1.122-2.5 2.5-2.5h292c1.378 0 2.5 1.121 2.5 2.5v16c0 1.379-1.122 2.5-2.5 2.5h-203.473c-4.142 0-7.5 3.357-7.5 7.5s3.358 7.5 7.5 7.5z"/></g></svg>