<svg id="Capa_1" enable-background="new 0 0 511.959 511.959" height="512" viewBox="0 0 511.959 511.959" width="512" xmlns="http://www.w3.org/2000/svg"><g><path d="m184.813 318.205c-6.176-2.723-12.995-4.247-20.166-4.247-27.662 0-50.167 22.504-50.167 50.167s22.505 50.167 50.167 50.167c27.661 0 50.166-22.504 50.166-50.167v-129.794l110.667-31.469v75.343c-6.176-2.723-12.995-4.247-20.167-4.247-27.661 0-50.166 22.505-50.166 50.167s22.505 50.167 50.166 50.167c27.662 0 50.167-22.504 50.167-50.167v-231.317l-170.667 48.531zm-20.167 66.086c-11.12 0-20.167-9.047-20.167-20.167s9.047-20.167 20.167-20.167c11.119 0 20.166 9.047 20.166 20.167s-9.046 20.167-20.166 20.167zm140.667-40c-11.119 0-20.166-9.047-20.166-20.167s9.047-20.167 20.166-20.167c11.12 0 20.167 9.047 20.167 20.167-.001 11.12-9.047 20.167-20.167 20.167zm20.166-211.763v39.144l-110.667 31.469v-39.144z"/><path d="m436.984 74.975c-48.348-48.348-112.63-74.975-181.005-74.975s-132.656 26.627-181.004 74.975-74.975 112.63-74.975 181.004 26.627 132.656 74.975 181.004c48.349 48.348 112.631 74.975 181.005 74.975s132.656-26.626 181.005-74.975c48.348-48.348 74.975-112.63 74.975-181.004s-26.628-132.656-74.976-181.004zm-21.213 340.796c-42.682 42.682-99.43 66.188-159.791 66.188s-117.11-23.506-159.792-66.188-66.188-99.43-66.188-159.792 23.506-117.109 66.188-159.791 99.43-66.188 159.791-66.188 117.109 23.506 159.791 66.188c42.683 42.682 66.188 99.43 66.188 159.791s-23.505 117.11-66.187 159.792z"/></g></svg>